<svg xmlns="http://www.w3.org/2000/svg" viewBox="0 0 100 100">
  <!-- Red background -->
  <rect width="100" height="100" fill="#EE1C25"/>
  
  <!-- Yellow sun with 40 rays -->
  <circle cx="50" cy="50" r="20" fill="#FFCC00"/>
  
  <!-- Sun rays (simplified version with 16 rays for favicon clarity) -->
  <g fill="#FFCC00">
    <path d="M50 10 L48 28 L52 28 Z"/>
    <path d="M50 90 L48 72 L52 72 Z"/>
    <path d="M10 50 L28 48 L28 52 Z"/>
    <path d="M90 50 L72 48 L72 52 Z"/>
    <path d="M21 21 L33 33 L30 36 L18 24 Z"/>
    <path d="M79 79 L67 67 L70 64 L82 76 Z"/>
    <path d="M79 21 L67 33 L64 30 L76 18 Z"/>
    <path d="M21 79 L33 67 L36 70 L24 82 Z"/>
  </g>
  
  <!-- Inner circle pattern (yurt tunduk symbol simplified) -->
  <circle cx="50" cy="50" r="12" fill="none" stroke="#EE1C25" stroke-width="2"/>
  <line x1="50" y1="38" x2="50" y2="62" stroke="#EE1C25" stroke-width="1.5"/>
  <line x1="38" y1="50" x2="62" y2="50" stroke="#EE1C25" stroke-width="1.5"/>
</svg>
