<?xml version="1.0" standalone="no"?>
<!DOCTYPE svg PUBLIC "-//W3C//DTD SVG 20010904//EN"
 "http://www.w3.org/TR/2001/REC-SVG-20010904/DTD/svg10.dtd">
<svg version="1.0" xmlns="http://www.w3.org/2000/svg"
 width="300.000000pt" height="300.000000pt" viewBox="0 0 300.000000 300.000000"
 preserveAspectRatio="xMidYMid meet">
<metadata>
Created by potrace 1.10, written by Peter Selinger 2001-2011
</metadata>
<g transform="translate(0.000000,300.000000) scale(0.100000,-0.100000)"
fill="#000000" stroke="none">
<path d="M1019 2075 c-123 -24 -244 -98 -303 -184 l-30 -42 -14 28 c-51 101
-177 162 -297 145 l-49 -7 63 -70 c80 -88 132 -162 211 -300 104 -182 190
-278 304 -342 44 -24 62 -28 131 -28 67 0 89 4 137 28 128 63 185 208 144 362
-36 137 -110 193 -242 182 -149 -12 -230 -115 -190 -243 28 -89 97 -126 171
-92 24 11 35 38 16 38 -5 0 -19 16 -31 35 -21 33 -21 37 -6 60 38 59 119 12
119 -69 0 -84 -65 -134 -160 -123 -55 6 -106 45 -148 112 -54 87 -37 224 37
291 55 51 108 69 203 69 138 0 209 -41 261 -150 47 -100 56 -282 19 -355 -10
-19 -55 -82 -101 -138 l-83 -104 117 -96 c64 -52 137 -112 161 -132 l44 -38
126 107 c69 58 139 116 154 128 l28 22 -89 113 c-49 63 -95 125 -103 138 -9
17 -14 58 -14 125 0 244 105 375 299 375 123 0 206 -44 251 -133 41 -83 29
-185 -31 -264 -32 -43 -63 -63 -114 -74 -90 -20 -160 25 -167 108 -6 56 19 97
63 106 26 5 64 -21 64 -44 0 -15 -20 -51 -42 -75 -19 -22 -19 -22 3 -38 68
-47 155 3 178 102 17 70 7 115 -35 162 -61 67 -192 91 -279 51 -51 -23 -67
-42 -102 -116 -23 -50 -27 -73 -27 -140 0 -102 28 -169 92 -226 56 -48 161
-84 228 -76 123 13 274 144 383 332 102 176 166 269 237 344 54 58 63 72 49
77 -27 11 -158 -3 -201 -21 -46 -19 -118 -86 -135 -126 l-11 -29 -28 38 c-94
130 -271 209 -446 200 -108 -6 -193 -46 -277 -132 l-60 -61 -71 70 c-123 123
-233 155 -407 120z m176 -36 c82 -15 141 -47 224 -123 39 -37 75 -66 79 -66 4
0 37 26 73 58 82 73 119 96 188 116 67 20 116 20 206 1 101 -21 180 -64 256
-140 37 -36 75 -65 84 -65 9 0 42 27 72 60 58 62 118 94 166 88 26 -3 25 -4
-34 -81 -52 -68 -149 -220 -149 -233 0 -21 -123 -184 -178 -236 -86 -81 -146
-111 -221 -112 -66 0 -153 35 -195 80 -32 35 -66 122 -66 171 0 58 30 148 62
187 78 95 288 59 313 -54 9 -42 -17 -121 -48 -144 -20 -15 -30 -17 -39 -8 -8
8 -8 15 -1 24 11 13 16 39 14 71 0 10 -12 29 -26 42 -46 47 -124 24 -160 -45
-31 -60 -12 -134 48 -187 48 -42 101 -50 174 -27 66 21 111 62 150 137 23 44
28 64 28 132 0 70 -3 86 -28 128 -66 108 -160 153 -304 144 -109 -6 -181 -40
-234 -111 -68 -90 -103 -257 -80 -380 11 -59 15 -66 123 -209 26 -34 48 -69
48 -77 0 -20 -215 -200 -238 -200 -21 0 -246 184 -250 205 -2 8 27 52 64 97
97 121 109 150 108 278 -1 277 -133 423 -368 408 -260 -17 -375 -295 -198
-482 128 -134 332 -78 332 92 0 50 -3 58 -39 93 -49 49 -85 52 -131 9 -33 -30
-36 -52 -19 -119 7 -24 -20 -23 -45 2 -34 34 -50 98 -36 142 23 69 121 115
216 100 115 -17 186 -186 139 -326 -36 -104 -123 -164 -240 -164 -82 1 -117
16 -204 90 -67 58 -137 151 -211 284 -29 52 -82 133 -118 180 -80 106 -82 111
-46 111 47 -1 105 -34 164 -94 30 -31 61 -56 68 -56 8 0 45 29 83 65 104 98
188 134 355 154 6 0 37 -4 69 -10z"/>
<path d="M1442 1308 c-17 -18 -38 -50 -47 -70 l-15 -38 48 -50 c61 -64 86 -65
142 -9 22 22 40 48 40 56 0 23 -44 94 -74 121 -35 30 -56 28 -94 -10z m98 -54
c23 -30 40 -56 38 -57 -2 -1 -20 -18 -41 -36 l-37 -35 -40 39 c-22 21 -40 43
-40 47 0 10 63 97 71 97 4 1 26 -24 49 -55z"/>
</g>
</svg>
